<svg width="450" height="480" viewBox="0 0 450 480" fill="none" xmlns="http://www.w3.org/2000/svg">
<g clip-path="url(#clip0_206_251)">
<path d="M265.909 309.223V340.568H272.727C340.508 340.568 395.455 395.515 395.455 463.296V478.637H54.5454V463.296C54.5454 395.515 109.492 340.568 177.273 340.568H184.091V309.223C154.709 295.266 133.589 266.74 130.066 232.98C120.137 231.576 112.5 223.044 112.5 212.728V188.864C112.5 178.729 119.871 170.315 129.545 168.692V158.182C129.545 105.464 172.282 62.7275 225 62.7275C277.718 62.7275 320.455 105.464 320.455 158.182V168.692C330.129 170.315 337.5 178.729 337.5 188.864V212.728C337.5 223.044 329.863 231.576 319.934 232.98C316.411 266.74 295.291 295.266 265.909 309.223Z" fill="#D0C6AC"/>
<mask id="mask0_206_251" style="mask-type:luminance" maskUnits="userSpaceOnUse" x="54" y="62" width="342" height="417">
<path d="M265.909 309.223V340.568H272.727C340.508 340.568 395.455 395.515 395.455 463.296V478.637H54.5454V463.296C54.5454 395.515 109.492 340.568 177.273 340.568H184.091V309.223C154.709 295.266 133.589 266.74 130.066 232.98C120.137 231.576 112.5 223.044 112.5 212.728V188.864C112.5 178.729 119.871 170.315 129.545 168.692V158.182C129.545 105.464 172.282 62.7275 225 62.7275C277.718 62.7275 320.455 105.464 320.455 158.182V168.692C330.129 170.315 337.5 178.729 337.5 188.864V212.728C337.5 223.044 329.863 231.576 319.934 232.98C316.411 266.74 295.291 295.266 265.909 309.223Z" fill="white"/>
</mask>
<g mask="url(#mask0_206_251)">
<path d="M450 62.7275H0V478.637H450V62.7275Z" fill="#FFDBB4"/>
</g>
<mask id="mask1_206_251" style="mask-type:luminance" maskUnits="userSpaceOnUse" x="54" y="62" width="342" height="417">
<path d="M265.909 309.223V340.568H272.727C340.508 340.568 395.455 395.515 395.455 463.296V478.637H54.5454V463.296C54.5454 395.515 109.492 340.568 177.273 340.568H184.091V309.223C154.709 295.266 133.589 266.74 130.066 232.98C120.137 231.576 112.5 223.044 112.5 212.728V188.864C112.5 178.729 119.871 170.315 129.545 168.692V158.182C129.545 105.464 172.282 62.7275 225 62.7275C277.718 62.7275 320.455 105.464 320.455 158.182V168.692C330.129 170.315 337.5 178.729 337.5 188.864V212.728C337.5 223.044 329.863 231.576 319.934 232.98C316.411 266.74 295.291 295.266 265.909 309.223Z" fill="white"/>
</mask>
<g mask="url(#mask1_206_251)">
<path fill-rule="evenodd" clip-rule="evenodd" d="M320.454 197.387V236.591C320.454 289.309 277.718 332.046 225 332.046C172.282 332.046 129.545 289.309 129.545 236.591V197.387V222.955C129.545 275.673 172.282 318.409 225 318.409C277.718 318.409 320.454 275.673 320.454 222.955V197.387Z" fill="black" fill-opacity="0.1"/>
</g>
<path fill-rule="evenodd" clip-rule="evenodd" d="M282.887 341.071C345.914 346.236 395.455 399.024 395.455 463.384V478.636H54.5454V463.384C54.5454 398.442 104.986 345.281 168.827 340.942C168.776 341.579 168.75 342.22 168.75 342.865C168.75 363.086 194.316 379.479 225.852 379.479C257.389 379.479 282.955 363.086 282.955 342.865C282.955 342.264 282.932 341.665 282.887 341.071Z" fill="#E6E6E6"/>
<mask id="mask2_206_251" style="mask-type:luminance" maskUnits="userSpaceOnUse" x="54" y="340" width="342" height="139">
<path fill-rule="evenodd" clip-rule="evenodd" d="M282.887 341.071C345.914 346.236 395.455 399.024 395.455 463.384V478.636H54.5454V463.384C54.5454 398.442 104.986 345.281 168.827 340.942C168.776 341.579 168.75 342.22 168.75 342.865C168.75 363.086 194.316 379.479 225.852 379.479C257.389 379.479 282.955 363.086 282.955 342.865C282.955 342.264 282.932 341.665 282.887 341.071Z" fill="white"/>
</mask>
<g mask="url(#mask2_206_251)">
<path d="M450 291.136H0V478.636H450V291.136Z" fill="white"/>
</g>
<mask id="mask3_206_251" style="mask-type:luminance" maskUnits="userSpaceOnUse" x="54" y="340" width="342" height="139">
<path fill-rule="evenodd" clip-rule="evenodd" d="M282.887 341.071C345.914 346.236 395.455 399.024 395.455 463.384V478.636H54.5454V463.384C54.5454 398.442 104.986 345.281 168.827 340.942C168.776 341.579 168.75 342.22 168.75 342.865C168.75 363.086 194.316 379.479 225.852 379.479C257.389 379.479 282.955 363.086 282.955 342.865C282.955 342.264 282.932 341.665 282.887 341.071Z" fill="white"/>
</mask>
<g mask="url(#mask3_206_251)">
<g opacity="0.6">
<path d="M225.852 391.298C263.165 391.298 293.412 370.759 293.412 345.422C293.412 320.086 263.165 299.546 225.852 299.546C188.54 299.546 158.292 320.086 158.292 345.422C158.292 370.759 188.54 391.298 225.852 391.298Z" fill="black" fill-opacity="0.16"/>
</g>
</g>
<path fill-rule="evenodd" clip-rule="evenodd" d="M192.814 255.56C194.618 271.739 208.34 284.318 225 284.318C241.712 284.318 255.467 271.661 257.202 255.409C257.341 254.102 255.881 251.932 254.05 251.932C228.663 251.932 209.212 251.932 196.171 251.932C194.329 251.932 192.634 253.941 192.814 255.56Z" fill="black" fill-opacity="0.7"/>
<mask id="mask4_206_251" style="mask-type:luminance" maskUnits="userSpaceOnUse" x="192" y="251" width="66" height="34">
<path fill-rule="evenodd" clip-rule="evenodd" d="M192.814 255.56C194.618 271.739 208.34 284.318 225 284.318C241.712 284.318 255.467 271.661 257.202 255.409C257.341 254.102 255.881 251.932 254.05 251.932C228.663 251.932 209.212 251.932 196.171 251.932C194.329 251.932 192.634 253.941 192.814 255.56Z" fill="white"/>
</mask>
<g mask="url(#mask4_206_251)">
<path d="M243.75 233.182H207.954C203.248 233.182 199.432 236.998 199.432 241.705V251.932C199.432 256.639 203.248 260.455 207.954 260.455H243.75C248.457 260.455 252.273 256.639 252.273 251.932V241.705C252.273 236.998 248.457 233.182 243.75 233.182Z" fill="white"/>
</g>
<mask id="mask5_206_251" style="mask-type:luminance" maskUnits="userSpaceOnUse" x="192" y="251" width="66" height="34">
<path fill-rule="evenodd" clip-rule="evenodd" d="M192.814 255.56C194.618 271.739 208.34 284.318 225 284.318C241.712 284.318 255.467 271.661 257.202 255.409C257.341 254.102 255.881 251.932 254.05 251.932C228.663 251.932 209.212 251.932 196.171 251.932C194.329 251.932 192.634 253.941 192.814 255.56Z" fill="white"/>
</mask>
<g mask="url(#mask5_206_251)">
<path d="M216.477 308.182C226.833 308.182 235.227 299.787 235.227 289.432C235.227 279.077 226.833 270.682 216.477 270.682C206.122 270.682 197.727 279.077 197.727 289.432C197.727 299.787 206.122 308.182 216.477 308.182Z" fill="#FF4F6D"/>
<path d="M233.523 308.182C243.878 308.182 252.273 299.787 252.273 289.432C252.273 279.077 243.878 270.682 233.523 270.682C223.167 270.682 214.773 279.077 214.773 289.432C214.773 299.787 223.167 308.182 233.523 308.182Z" fill="#FF4F6D"/>
</g>
<path fill-rule="evenodd" clip-rule="evenodd" d="M204.545 222.955C204.545 230.486 213.703 236.591 225 236.591C236.297 236.591 245.455 230.486 245.455 222.955" fill="black" fill-opacity="0.16"/>
<path d="M179.5 210C189.717 210 198 201.941 198 192C198 182.059 189.717 174 179.5 174C169.283 174 161 182.059 161 192C161 201.941 169.283 210 179.5 210Z" fill="white"/>
<path d="M180.682 202.5C186.33 202.5 190.909 197.921 190.909 192.273C190.909 186.624 186.33 182.045 180.682 182.045C175.033 182.045 170.455 186.624 170.455 192.273C170.455 197.921 175.033 202.5 180.682 202.5Z" fill="black" fill-opacity="0.6"/>
<path d="M271.5 210C281.717 210 290 201.941 290 192C290 182.059 281.717 174 271.5 174C261.283 174 253 182.059 253 192C253 201.941 261.283 210 271.5 210Z" fill="white"/>
<path d="M269.318 202.5C274.967 202.5 279.545 197.921 279.545 192.273C279.545 186.624 274.967 182.045 269.318 182.045C263.67 182.045 259.091 186.624 259.091 192.273C259.091 197.921 263.67 202.5 269.318 202.5Z" fill="black" fill-opacity="0.6"/>
<path fill-rule="evenodd" clip-rule="evenodd" d="M174.797 151.617C164.898 152.074 148.896 159.267 149.308 169.248C149.322 169.575 149.802 169.718 150.036 169.467C154.732 164.423 188.074 159.326 199.817 162.027C200.892 162.274 201.709 161.214 201.028 160.448C195.195 153.889 183.664 151.199 174.797 151.617Z" fill="black" fill-opacity="0.6"/>
<path fill-rule="evenodd" clip-rule="evenodd" d="M276.908 151.617C286.806 152.074 302.809 159.267 302.396 169.248C302.383 169.575 301.903 169.718 301.668 169.467C296.973 164.423 263.631 159.326 251.887 162.027C250.813 162.274 249.996 161.214 250.677 160.448C256.51 153.889 268.04 151.199 276.908 151.617Z" fill="black" fill-opacity="0.6"/>
<mask id="mask6_206_251" style="mask-type:luminance" maskUnits="userSpaceOnUse" x="0" y="1" width="450" height="478">
<path d="M450 1.36377H0V478.637H450V1.36377Z" fill="white"/>
</mask>
<g mask="url(#mask6_206_251)">
<path fill-rule="evenodd" clip-rule="evenodd" d="M254.707 291.424C250.423 295.334 245.859 297.093 240.09 295.863C239.098 295.652 235.051 288.127 225 288.127C214.949 288.127 210.902 295.652 209.909 295.863C204.141 297.093 199.576 295.334 195.292 291.424C187.238 284.072 180.54 273.935 184.564 262.874C186.662 257.109 190.073 250.779 196.279 248.942C202.906 246.981 212.211 248.939 218.889 247.599C221.052 247.165 223.416 246.394 225 245.114C226.584 246.394 228.948 247.165 231.11 247.599C237.789 248.939 247.093 246.981 253.72 248.942C259.926 250.779 263.337 257.109 265.436 262.874C269.46 273.935 262.762 284.072 254.707 291.424ZM320.593 168.409C314.78 182.728 317.025 200.554 315.949 215.584C315.075 227.801 312.506 246.112 301.658 254.002C296.111 258.037 286.013 264.818 278.765 262.927C273.775 261.625 273.242 247.313 266.685 241.955C259.247 235.879 249.96 233.209 240.595 233.621C236.554 233.799 228.382 233.757 225 236.865C221.618 233.757 213.446 233.799 209.405 233.621C200.04 233.209 190.752 235.879 183.315 241.955C176.757 247.313 176.226 261.625 171.236 262.927C163.987 264.818 153.889 258.037 148.341 254.002C137.493 246.112 134.925 227.801 134.05 215.584C132.975 200.554 135.22 182.728 129.407 168.409C126.579 168.409 128.444 195.902 128.444 195.902V230.6C128.498 256.659 144.776 295.663 180.866 310.556C189.692 314.199 209.685 320.114 225 320.114C240.315 320.114 260.307 314.762 269.134 311.119C305.224 296.226 321.501 256.659 321.556 230.6V195.902C321.556 195.902 323.421 168.409 320.593 168.409Z" fill="#4A312C"/>
<mask id="mask7_206_251" style="mask-type:luminance" maskUnits="userSpaceOnUse" x="127" y="168" width="196" height="153">
<path fill-rule="evenodd" clip-rule="evenodd" d="M254.707 291.424C250.423 295.334 245.859 297.093 240.09 295.863C239.098 295.652 235.051 288.127 225 288.127C214.949 288.127 210.902 295.652 209.909 295.863C204.141 297.093 199.576 295.334 195.292 291.424C187.238 284.072 180.54 273.935 184.564 262.874C186.662 257.109 190.073 250.779 196.279 248.942C202.906 246.981 212.211 248.939 218.889 247.599C221.052 247.165 223.416 246.394 225 245.114C226.584 246.394 228.948 247.165 231.11 247.599C237.789 248.939 247.093 246.981 253.72 248.942C259.926 250.779 263.337 257.109 265.436 262.874C269.46 273.935 262.762 284.072 254.707 291.424ZM320.593 168.409C314.78 182.728 317.025 200.554 315.949 215.584C315.075 227.801 312.506 246.112 301.658 254.002C296.111 258.037 286.013 264.818 278.765 262.927C273.775 261.625 273.242 247.313 266.685 241.955C259.247 235.879 249.96 233.209 240.595 233.621C236.554 233.799 228.382 233.757 225 236.865C221.618 233.757 213.446 233.799 209.405 233.621C200.04 233.209 190.752 235.879 183.315 241.955C176.757 247.313 176.226 261.625 171.236 262.927C163.987 264.818 153.889 258.037 148.341 254.002C137.493 246.112 134.925 227.801 134.05 215.584C132.975 200.554 135.22 182.728 129.407 168.409C126.579 168.409 128.444 195.902 128.444 195.902V230.6C128.498 256.659 144.776 295.663 180.866 310.556C189.692 314.199 209.685 320.114 225 320.114C240.315 320.114 260.307 314.762 269.134 311.119C305.224 296.226 321.501 256.659 321.556 230.6V195.902C321.556 195.902 323.421 168.409 320.593 168.409Z" fill="white"/>
</mask>
<g mask="url(#mask7_206_251)">
<path d="M477.273 124.091H27.2727V540H477.273V124.091Z" fill="#A86F3B"/>
</g>
<path fill-rule="evenodd" clip-rule="evenodd" d="M311.386 67.7538C320.601 59.3158 322.819 42.2073 317.587 31.1069C311.164 17.4782 298.127 15.7708 285.635 21.7649C273.86 27.4153 263.378 29.2976 250.483 26.5599C238.111 23.9331 226.373 19.3 213.585 18.5391C192.576 17.2892 172.165 25.0817 157.846 40.7886C155.114 43.785 152.913 47.2112 150.832 50.6837C149.167 53.4622 147.291 56.4434 146.582 59.6459C146.246 61.1687 146.873 64.926 146.114 66.1737C145.294 67.5211 142.201 68.7569 140.882 69.7567C138.212 71.7828 135.898 74.0693 133.758 76.6553C129.214 82.1467 126.712 87.8825 124.608 94.6753C117.615 117.252 117.022 144.105 126.063 166.273C127.268 169.229 131.003 175.395 133.199 169.065C133.632 167.814 132.628 163.621 132.631 162.358C132.639 157.722 135.198 127.025 146.347 109.829C149.977 104.232 166.755 83.271 170.183 83.1028C171.999 85.9883 190.433 104.425 238.267 102.264C259.85 101.289 276.448 91.5923 280.433 87.3889C282.186 96.8198 302.579 110.939 305.687 116.748C314.663 133.53 316.655 168.402 320.081 168.336C323.508 168.271 325.968 159.409 326.673 157.717C331.908 145.145 332.8 129.366 332.241 115.855C331.513 98.4655 324.335 79.6739 311.386 67.7538Z" fill="#28354B"/>
<mask id="mask8_206_251" style="mask-type:luminance" maskUnits="userSpaceOnUse" x="119" y="18" width="214" height="154">
<path fill-rule="evenodd" clip-rule="evenodd" d="M311.386 67.7538C320.601 59.3158 322.819 42.2073 317.587 31.1069C311.164 17.4782 298.127 15.7708 285.635 21.7649C273.86 27.4153 263.378 29.2976 250.483 26.5599C238.111 23.9331 226.373 19.3 213.585 18.5391C192.576 17.2892 172.165 25.0817 157.846 40.7886C155.114 43.785 152.913 47.2112 150.832 50.6837C149.167 53.4622 147.291 56.4434 146.582 59.6459C146.246 61.1687 146.873 64.926 146.114 66.1737C145.294 67.5211 142.201 68.7569 140.882 69.7567C138.212 71.7828 135.898 74.0693 133.758 76.6553C129.214 82.1467 126.712 87.8825 124.608 94.6753C117.615 117.252 117.022 144.105 126.063 166.273C127.268 169.229 131.003 175.395 133.199 169.065C133.632 167.814 132.628 163.621 132.631 162.358C132.639 157.722 135.198 127.025 146.347 109.829C149.977 104.232 166.755 83.271 170.183 83.1028C171.999 85.9883 190.433 104.425 238.267 102.264C259.85 101.289 276.448 91.5923 280.433 87.3889C282.186 96.8198 302.579 110.939 305.687 116.748C314.663 133.53 316.655 168.402 320.081 168.336C323.508 168.271 325.968 159.409 326.673 157.717C331.908 145.145 332.8 129.366 332.241 115.855C331.513 98.4655 324.335 79.6739 311.386 67.7538Z" fill="white"/>
</mask>
<g mask="url(#mask8_206_251)">
<path d="M448.295 1.36377H-1.70456V478.637H448.295V1.36377Z" fill="#895F2D"/>
</g>
<g filter="url(#filter0_d_206_251)">
<path d="M172.159 228.068H167.458C143.718 228.068 129.545 215.005 129.545 193.125C129.545 175.444 132.643 158.182 169.653 158.182H174.665C211.676 158.182 214.773 175.444 214.773 193.125C214.773 213.697 197.252 228.068 172.159 228.068ZM169.407 168.409C136.364 168.409 136.364 180.07 136.364 194.833C136.364 206.884 141.675 221.25 166.996 221.25H172.159C193.236 221.25 207.955 210.387 207.955 194.833C207.955 180.07 207.955 168.409 174.911 168.409H169.407Z" fill="#252C2F"/>
<path d="M277.841 228.068H273.14C249.4 228.068 235.227 215.005 235.227 193.125C235.227 175.444 238.324 158.182 275.335 158.182H280.347C317.357 158.182 320.455 175.444 320.455 193.125C320.455 213.697 302.934 228.068 277.841 228.068ZM275.089 168.409C242.045 168.409 242.045 180.07 242.045 194.833C242.045 206.884 247.363 221.25 272.678 221.25H277.841C298.917 221.25 313.636 210.387 313.636 194.833C313.636 180.07 313.636 168.409 280.593 168.409H275.089Z" fill="#252C2F"/>
<path d="M119.241 168.02C120.419 166.869 133.312 158.182 169.602 158.182C200.031 158.182 206.472 161.34 216.222 166.111L216.936 166.464C217.614 166.703 221.08 167.881 225.135 168.01C228.829 167.852 231.989 166.85 232.912 166.53C244.04 161.118 254.934 158.182 280.398 158.182C316.688 158.182 329.581 166.869 330.759 168.02C333.544 168.02 335.795 170.219 335.795 172.939V177.858C335.795 180.578 333.544 182.777 330.759 182.777C330.759 182.777 318.995 182.777 318.995 187.696C318.995 192.615 315.651 180.578 315.651 177.858V173.067C309.509 170.716 298.514 166.34 280.398 166.34C260.213 166.34 250.161 169.92 241.538 173.474L241.634 173.706L241.63 177.092L237.851 186.211L233.183 184.365C232.766 184.201 231.866 183.904 230.619 183.597C227.141 182.739 223.566 182.478 220.405 183.127C219.245 183.365 218.169 183.722 217.181 184.205L212.677 186.406L208.17 177.607L208.371 173.696L208.508 173.364C201.072 169.899 194.215 166.34 169.602 166.34C151.487 166.34 140.492 170.715 134.349 173.065V177.858C134.349 180.578 129.313 192.615 129.313 187.696C129.313 182.777 119.241 182.777 119.241 182.777C116.461 182.777 114.205 180.578 114.205 177.858V172.939C114.205 170.219 116.461 168.02 119.241 168.02Z" fill="#252C2F"/>
</g>
</g>
</g>
<defs>
<filter id="filter0_d_206_251" x="114.205" y="158.182" width="221.591" height="73.2953" filterUnits="userSpaceOnUse" color-interpolation-filters="sRGB">
<feFlood flood-opacity="0" result="BackgroundImageFix"/>
<feColorMatrix in="SourceAlpha" type="matrix" values="0 0 0 0 0 0 0 0 0 0 0 0 0 0 0 0 0 0 127 0" result="hardAlpha"/>
<feOffset dy="3.40909"/>
<feColorMatrix type="matrix" values="0 0 0 0 0 0 0 0 0 0 0 0 0 0 0 0 0 0 0.2 0"/>
<feBlend mode="normal" in2="BackgroundImageFix" result="effect1_dropShadow_206_251"/>
<feBlend mode="normal" in="SourceGraphic" in2="effect1_dropShadow_206_251" result="shape"/>
</filter>
<clipPath id="clip0_206_251">
<rect width="450" height="480" fill="white"/>
</clipPath>
</defs>
</svg>
