<svg width="29" height="22" viewBox="0 0 29 22" fill="none" xmlns="http://www.w3.org/2000/svg">
<path d="M17.4 3.5V14H2.9V3.5H17.4ZM2.9 0.5C1.30047 0.5 0 1.84531 0 3.5V14C0 15.6547 1.30047 17 2.9 17H8.21516L7.73031 18.5H4.35C3.54797 18.5 2.9 19.1703 2.9 20C2.9 20.8297 3.54797 21.5 4.35 21.5H15.95C16.752 21.5 17.4 20.8297 17.4 20C17.4 19.1703 16.752 18.5 15.95 18.5H12.5652L12.0803 17H17.4C18.9995 17 20.3 15.6547 20.3 14V3.5C20.3 1.84531 18.9995 0.5 17.4 0.5H2.9ZM23.925 0.5C22.7242 0.5 21.75 1.50781 21.75 2.75V19.25C21.75 20.4922 22.7242 21.5 23.925 21.5H26.825C28.0258 21.5 29 20.4922 29 19.25V2.75C29 1.50781 28.0258 0.5 26.825 0.5H23.925ZM24.65 3.5H26.1C26.4988 3.5 26.825 3.8375 26.825 4.25C26.825 4.6625 26.4988 5 26.1 5H24.65C24.2513 5 23.925 4.6625 23.925 4.25C23.925 3.8375 24.2513 3.5 24.65 3.5ZM23.925 7.25C23.925 6.8375 24.2513 6.5 24.65 6.5H26.1C26.4988 6.5 26.825 6.8375 26.825 7.25C26.825 7.6625 26.4988 8 26.1 8H24.65C24.2513 8 23.925 7.6625 23.925 7.25ZM25.375 14.75C25.7596 14.75 26.1284 14.908 26.4003 15.1893C26.6722 15.4706 26.825 15.8522 26.825 16.25C26.825 16.6478 26.6722 17.0294 26.4003 17.3107C26.1284 17.592 25.7596 17.75 25.375 17.75C24.9904 17.75 24.6216 17.592 24.3497 17.3107C24.0778 17.0294 23.925 16.6478 23.925 16.25C23.925 15.8522 24.0778 15.4706 24.3497 15.1893C24.6216 14.908 24.9904 14.75 25.375 14.75Z" fill="#C4C4C4"/>
</svg>
