<svg width="47" height="16" viewBox="0 0 47 16" fill="none" xmlns="http://www.w3.org/2000/svg">
<g clip-path="url(#clip0_94_255)">
<path fill-rule="evenodd" clip-rule="evenodd" d="M19.3365 15.1659V3.49902H30.2762V5.7962H22.2587V15.1659H19.3365Z" fill="#C4C4C4"/>
<path d="M38.6939 15.1327V6.45205H42.3845C43.3124 6.45205 43.9856 6.53081 44.4061 6.68641C44.8265 6.84201 45.1637 7.11891 45.4165 7.51712C45.6693 7.91724 45.7944 8.37197 45.7944 8.88514C45.7944 9.53612 45.6026 10.076 45.2203 10.5002C44.8386 10.9226 44.2644 11.1918 43.5023 11.3004C43.8821 11.5227 44.1958 11.7653 44.4423 12.0302C44.6887 12.295 45.0202 12.7644 45.4387 13.4395L46.5 15.1327H44.4035L43.1365 13.2432C42.6856 12.5681 42.3788 12.1432 42.213 11.9679C42.0473 11.792 41.8714 11.6726 41.6853 11.6059C41.4992 11.5411 41.2064 11.5088 40.8018 11.5088H40.4481V15.1327H38.6939ZM9.46641 0.597656V9.00073C9.46641 11.4821 8.6738 13.1086 6.44204 13.1086C4.21092 13.1086 3.41894 11.4821 3.41894 9.00073V0.597656H0.5V9.8975C0.5 13.7964 2.70953 15.4026 6.44204 15.4026C10.1746 15.4026 12.3847 13.7964 12.3847 9.8975V2.89102H15.7584V15.1517H18.678V2.89102H30.294V0.597656H9.46641ZM22.902 6.48254V15.1657H25.6482V8.77781H30.2762V6.48254H22.902ZM31.5274 15.1333V6.45205H34.339C35.4041 6.45205 36.0995 6.49651 36.4228 6.58288C36.9201 6.71245 37.3386 6.9957 37.674 7.43202C38.0093 7.86834 38.177 8.43231 38.177 9.12203C38.177 9.65552 38.0804 10.1039 37.8861 10.4659C37.6924 10.8298 37.4479 11.115 37.1487 11.3227C36.8515 11.5291 36.5485 11.6663 36.2412 11.7336C35.8226 11.8161 35.2161 11.8587 34.4216 11.8587H33.2797V15.1333H31.5274ZM33.2797 7.92105V10.3834H34.238C34.929 10.3834 35.392 10.3383 35.6245 10.2474C35.8569 10.1566 36.0386 10.015 36.1719 9.82128C36.3034 9.62694 36.3701 9.40275 36.3701 9.14617C36.3701 8.83052 36.2774 8.57013 36.0913 8.36372C35.9071 8.15985 35.6708 8.03029 35.3882 7.98011C35.178 7.93947 34.7575 7.92105 34.1269 7.92105H33.2797ZM40.4481 10.1223H41.7437C42.5846 10.1223 43.1104 10.088 43.3207 10.0175C43.5283 9.9464 43.6922 9.82319 43.8116 9.64917C43.9291 9.47579 43.9894 9.25922 43.9894 8.99882C43.9894 8.7054 43.9107 8.47105 43.7551 8.29132C43.5995 8.11095 43.3791 7.9979 43.0939 7.94963C42.9529 7.93121 42.5261 7.92105 41.8148 7.92105H40.4481V10.1223Z" fill="#C4C4C4"/>
</g>
<defs>
<clipPath id="clip0_94_255">
<rect width="46" height="14.8049" fill="white" transform="translate(0.5 0.597656)"/>
</clipPath>
</defs>
</svg>
