<svg width="52" height="52" viewBox="0 0 52 52" fill="none" xmlns="http://www.w3.org/2000/svg">
<rect x="0.5" width="51" height="52" rx="8" fill="#F2E7D1"/>
<path d="M22.56 36.86L7.84 29.82C7.54667 29.66 7.4 29.4333 7.4 29.14V25.94C7.4 25.6467 7.54667 25.42 7.84 25.26L22.56 18.26C23.04 18.02 23.28 18.14 23.28 18.62V22.7C23.28 22.9667 23.1333 23.1667 22.84 23.3L13 27.54L22.84 31.82C23.1333 31.9 23.28 32.0867 23.28 32.38V36.5C23.28 36.9267 23.04 37.0467 22.56 36.86ZM28.7841 36.86C28.3041 37.0467 28.0641 36.9267 28.0641 36.5V32.38C28.0641 32.0867 28.2107 31.9 28.5041 31.82L38.3441 27.54L28.5041 23.3C28.2107 23.1667 28.0641 22.9667 28.0641 22.7V18.62C28.0641 18.14 28.3041 18.02 28.7841 18.26L43.5041 25.26C43.7974 25.42 43.9441 25.6467 43.9441 25.94V29.14C43.9441 29.4333 43.7974 29.66 43.5041 29.82L28.7841 36.86Z" fill="#32CA55"/>
</svg>
