<svg width="274" height="227" viewBox="0 0 274 227" fill="none" xmlns="http://www.w3.org/2000/svg">
<path d="M222.381 171.281C222.381 175.505 226.474 178.94 231.255 178.079C255.663 173.679 274 154.968 274 132.552V91.627C274 69.2111 255.663 50.4993 231.255 46.1002C226.474 45.2384 222.381 48.6733 222.381 52.8975V171.281Z" fill="#29A445"/>
<path d="M148.254 95.5552C148.254 94.2782 148.313 93.0135 148.43 91.7626C148.314 90.9025 148.254 90.0275 148.254 89.1402V22.2851C148.254 9.97737 159.809 6.05613e-05 174.063 6.05613e-05C188.318 6.05613e-05 199.873 9.97737 199.873 22.2851V175.076C199.873 179.293 195.779 182.722 190.999 181.861C166.59 177.47 148.254 158.789 148.254 136.411V95.5552Z" fill="#29A445"/>
<path d="M74.1268 170.023C74.1268 174.247 78.22 177.682 83.0013 176.82C107.409 172.421 125.746 153.709 125.746 131.293V90.3687C125.746 67.9528 107.409 49.241 83.0013 44.8419C78.22 43.9801 74.1268 47.415 74.1268 51.6392V170.023Z" fill="#29A445"/>
<path d="M0 131.148C0 132.425 0.0588111 133.69 0.176433 134.941C0.0598613 135.801 0 136.676 0 137.563V204.418C0 216.726 11.5553 226.703 25.8097 226.703C40.064 226.703 51.6193 216.726 51.6193 204.418V51.6276C51.6193 47.4106 47.5257 43.9814 42.7452 44.8417C18.3365 49.2334 0 67.9138 0 90.292V131.148Z" fill="#29A445"/>
</svg>
