<svg width="80" height="80" viewBox="0 0 80 80" fill="none" xmlns="http://www.w3.org/2000/svg">
<g clip-path="url(#clip0_232_370)">
<path fill-rule="evenodd" clip-rule="evenodd" d="M40 0C62.0915 0 80 17.9086 80 40C80 62.0915 62.0915 80 40 80C17.9086 80 0 62.0915 0 40C0 17.9086 17.9086 0 40 0ZM19.1306 39.3985C19.1306 36.637 21.3692 34.3985 24.1306 34.3985H34.9985V23.5294C34.9985 20.768 37.2373 18.5294 39.9985 18.5294C42.76 18.5294 44.9985 20.768 44.9985 23.5294V34.3985H55.8687C58.63 34.3985 60.8687 36.637 60.8687 39.3985C60.8687 42.1598 58.63 44.3985 55.8687 44.3985H44.9985V55.2675C44.9985 58.0288 42.76 60.2675 39.9985 60.2675C37.2373 60.2675 34.9985 58.0288 34.9985 55.2675V44.3985H24.1306C21.3692 44.3985 19.1306 42.1598 19.1306 39.3985Z" fill="white"/>
</g>
<defs>
<clipPath id="clip0_232_370">
<rect width="80" height="80" fill="white"/>
</clipPath>
</defs>
</svg>
