<svg width="150" height="60" viewBox="0 0 150 60" fill="none" xmlns="http://www.w3.org/2000/svg">
<path d="M0 5C0 2.23858 2.23858 0 5 0C7.76142 0 10 2.23858 10 5V55C10 57.7614 7.76142 60 5 60C2.23858 60 0 57.7614 0 55V5Z" fill="white"/>
<path d="M20 5C20 2.23858 22.2386 0 25 0C27.7614 0 30 2.23858 30 5V55C30 57.7614 27.7614 60 25 60C22.2386 60 20 57.7614 20 55V5Z" fill="white"/>
<path d="M40 5C40 2.23858 42.2386 0 45 0C47.7614 0 50 2.23858 50 5V55C50 57.7614 47.7614 60 45 60C42.2386 60 40 57.7614 40 55V5Z" fill="white"/>
<path d="M60 5C60 2.23858 62.2386 0 65 0C67.7614 0 70 2.23858 70 5V55C70 57.7614 67.7614 60 65 60C62.2386 60 60 57.7614 60 55V5Z" fill="white"/>
<path d="M80 5C80 2.23858 82.2386 0 85 0C87.7614 0 90 2.23858 90 5V55C90 57.7614 87.7614 60 85 60C82.2386 60 80 57.7614 80 55V5Z" fill="white"/>
<path d="M100 5C100 2.23858 102.239 0 105 0C107.761 0 110 2.23858 110 5V55C110 57.7614 107.761 60 105 60C102.239 60 100 57.7614 100 55V5Z" fill="white"/>
<path d="M120 5C120 2.23858 122.239 0 125 0C127.761 0 130 2.23858 130 5V55C130 57.7614 127.761 60 125 60C122.239 60 120 57.7614 120 55V5Z" fill="white"/>
<path d="M140 5C140 2.23858 142.239 0 145 0C147.761 0 150 2.23858 150 5V55C150 57.7614 147.761 60 145 60C142.239 60 140 57.7614 140 55V5Z" fill="white"/>
</svg>
