<svg width="50" height="14" viewBox="0 0 50 14" fill="none" xmlns="http://www.w3.org/2000/svg">
<g filter="url(#filter0_i_234_560)">
<path d="M5 2.5C5 3.88071 3.88071 5 2.5 5C1.11929 5 0 3.88071 0 2.5C0 1.11929 1.11929 0 2.5 0C3.88071 0 5 1.11929 5 2.5Z" fill="#3FFD6A"/>
<path d="M14 2.5C14 3.88071 12.8807 5 11.5 5C10.1193 5 9 3.88071 9 2.5C9 1.11929 10.1193 0 11.5 0C12.8807 0 14 1.11929 14 2.5Z" fill="#3FFD6A"/>
<path d="M23 2.5C23 3.88071 21.8807 5 20.5 5C19.1193 5 18 3.88071 18 2.5C18 1.11929 19.1193 0 20.5 0C21.8807 0 23 1.11929 23 2.5Z" fill="#3FFD6A"/>
<path d="M32 2.5C32 3.88071 30.8807 5 29.5 5C28.1193 5 27 3.88071 27 2.5C27 1.11929 28.1193 0 29.5 0C30.8807 0 32 1.11929 32 2.5Z" fill="#3FFD6A"/>
<path d="M41 2.5C41 3.88071 39.8807 5 38.5 5C37.1193 5 36 3.88071 36 2.5C36 1.11929 37.1193 0 38.5 0C39.8807 0 41 1.11929 41 2.5Z" fill="#3FFD6A"/>
<path d="M50 2.5C50 3.88071 48.8807 5 47.5 5C46.1193 5 45 3.88071 45 2.5C45 1.11929 46.1193 0 47.5 0C48.8807 0 50 1.11929 50 2.5Z" fill="#3FFD6A"/>
<path d="M5 11.5C5 12.8807 3.88071 14 2.5 14C1.11929 14 0 12.8807 0 11.5C0 10.1193 1.11929 9 2.5 9C3.88071 9 5 10.1193 5 11.5Z" fill="#3FFD6A"/>
<path d="M14 11.5C14 12.8807 12.8807 14 11.5 14C10.1193 14 9 12.8807 9 11.5C9 10.1193 10.1193 9 11.5 9C12.8807 9 14 10.1193 14 11.5Z" fill="#3FFD6A"/>
<path d="M23 11.5C23 12.8807 21.8807 14 20.5 14C19.1193 14 18 12.8807 18 11.5C18 10.1193 19.1193 9 20.5 9C21.8807 9 23 10.1193 23 11.5Z" fill="#3FFD6A"/>
<path d="M32 11.5C32 12.8807 30.8807 14 29.5 14C28.1193 14 27 12.8807 27 11.5C27 10.1193 28.1193 9 29.5 9C30.8807 9 32 10.1193 32 11.5Z" fill="#3FFD6A"/>
<path d="M41 11.5C41 12.8807 39.8807 14 38.5 14C37.1193 14 36 12.8807 36 11.5C36 10.1193 37.1193 9 38.5 9C39.8807 9 41 10.1193 41 11.5Z" fill="#3FFD6A"/>
<path d="M50 11.5C50 12.8807 48.8807 14 47.5 14C46.1193 14 45 12.8807 45 11.5C45 10.1193 46.1193 9 47.5 9C48.8807 9 50 10.1193 50 11.5Z" fill="#3FFD6A"/>
</g>
<defs>
<filter id="filter0_i_234_560" x="0" y="0" width="50" height="16" filterUnits="userSpaceOnUse" color-interpolation-filters="sRGB">
<feFlood flood-opacity="0" result="BackgroundImageFix"/>
<feBlend mode="normal" in="SourceGraphic" in2="BackgroundImageFix" result="shape"/>
<feColorMatrix in="SourceAlpha" type="matrix" values="0 0 0 0 0 0 0 0 0 0 0 0 0 0 0 0 0 0 127 0" result="hardAlpha"/>
<feMorphology radius="0.5" operator="erode" in="SourceAlpha" result="effect1_innerShadow_234_560"/>
<feOffset dy="2"/>
<feGaussianBlur stdDeviation="1.75"/>
<feComposite in2="hardAlpha" operator="arithmetic" k2="-1" k3="1"/>
<feColorMatrix type="matrix" values="0 0 0 0 0 0 0 0 0 0 0 0 0 0 0 0 0 0 0.3 0"/>
<feBlend mode="normal" in2="shape" result="effect1_innerShadow_234_560"/>
</filter>
</defs>
</svg>
