<svg width="41" height="23" viewBox="0 0 41 23" fill="none" xmlns="http://www.w3.org/2000/svg">
<path d="M5 2.5C5 3.88071 3.88071 5 2.5 5C1.11929 5 0 3.88071 0 2.5C0 1.11929 1.11929 0 2.5 0C3.88071 0 5 1.11929 5 2.5Z" fill="white"/>
<path d="M14 2.5C14 3.88071 12.8807 5 11.5 5C10.1193 5 9 3.88071 9 2.5C9 1.11929 10.1193 0 11.5 0C12.8807 0 14 1.11929 14 2.5Z" fill="white"/>
<path d="M23 2.5C23 3.88071 21.8807 5 20.5 5C19.1193 5 18 3.88071 18 2.5C18 1.11929 19.1193 0 20.5 0C21.8807 0 23 1.11929 23 2.5Z" fill="white"/>
<path d="M32 2.5C32 3.88071 30.8807 5 29.5 5C28.1193 5 27 3.88071 27 2.5C27 1.11929 28.1193 0 29.5 0C30.8807 0 32 1.11929 32 2.5Z" fill="white"/>
<path d="M41 2.5C41 3.88071 39.8807 5 38.5 5C37.1193 5 36 3.88071 36 2.5C36 1.11929 37.1193 0 38.5 0C39.8807 0 41 1.11929 41 2.5Z" fill="white"/>
<path d="M5 11.5C5 12.8807 3.88071 14 2.5 14C1.11929 14 0 12.8807 0 11.5C0 10.1193 1.11929 9 2.5 9C3.88071 9 5 10.1193 5 11.5Z" fill="white"/>
<path d="M14 11.5C14 12.8807 12.8807 14 11.5 14C10.1193 14 9 12.8807 9 11.5C9 10.1193 10.1193 9 11.5 9C12.8807 9 14 10.1193 14 11.5Z" fill="white"/>
<path d="M23 11.5C23 12.8807 21.8807 14 20.5 14C19.1193 14 18 12.8807 18 11.5C18 10.1193 19.1193 9 20.5 9C21.8807 9 23 10.1193 23 11.5Z" fill="white"/>
<path d="M32 11.5C32 12.8807 30.8807 14 29.5 14C28.1193 14 27 12.8807 27 11.5C27 10.1193 28.1193 9 29.5 9C30.8807 9 32 10.1193 32 11.5Z" fill="white"/>
<path d="M41 11.5C41 12.8807 39.8807 14 38.5 14C37.1193 14 36 12.8807 36 11.5C36 10.1193 37.1193 9 38.5 9C39.8807 9 41 10.1193 41 11.5Z" fill="white"/>
<path d="M5 20.5C5 21.8807 3.88071 23 2.5 23C1.11929 23 0 21.8807 0 20.5C0 19.1193 1.11929 18 2.5 18C3.88071 18 5 19.1193 5 20.5Z" fill="white"/>
<path d="M14 20.5C14 21.8807 12.8807 23 11.5 23C10.1193 23 9 21.8807 9 20.5C9 19.1193 10.1193 18 11.5 18C12.8807 18 14 19.1193 14 20.5Z" fill="white"/>
<path d="M23 20.5C23 21.8807 21.8807 23 20.5 23C19.1193 23 18 21.8807 18 20.5C18 19.1193 19.1193 18 20.5 18C21.8807 18 23 19.1193 23 20.5Z" fill="white"/>
<path d="M32 20.5C32 21.8807 30.8807 23 29.5 23C28.1193 23 27 21.8807 27 20.5C27 19.1193 28.1193 18 29.5 18C30.8807 18 32 19.1193 32 20.5Z" fill="white"/>
<path d="M41 20.5C41 21.8807 39.8807 23 38.5 23C37.1193 23 36 21.8807 36 20.5C36 19.1193 37.1193 18 38.5 18C39.8807 18 41 19.1193 41 20.5Z" fill="white"/>
</svg>
