<svg width="300" height="83" viewBox="0 0 300 83" fill="none" xmlns="http://www.w3.org/2000/svg">
<g clip-path="url(#clip0_35_70)">
<rect width="300" height="83" fill="#32CA55"/>
<rect x="-115.096" y="60.7148" width="16" height="401.702" transform="rotate(-35 -115.096 60.7148)" fill="#29A445"/>
<rect x="-90.5212" y="43.5073" width="16" height="401.702" transform="rotate(-35 -90.5212 43.5073)" fill="#29A445"/>
<rect x="-65.9467" y="26.3003" width="16" height="401.702" transform="rotate(-35 -65.9467 26.3003)" fill="#29A445"/>
<rect x="-41.3721" y="9.09277" width="16" height="401.702" transform="rotate(-35 -41.3721 9.09277)" fill="#29A445"/>
<rect x="-16.7976" y="-8.11426" width="16" height="401.702" transform="rotate(-35 -16.7976 -8.11426)" fill="#29A445"/>
<rect x="7.77698" y="-25.3218" width="16" height="401.702" transform="rotate(-35 7.77698 -25.3218)" fill="#29A445"/>
<rect x="32.3516" y="-42.5288" width="16" height="401.702" transform="rotate(-35 32.3516 -42.5288)" fill="#29A445"/>
<rect x="56.9261" y="-59.7363" width="16" height="401.702" transform="rotate(-35 56.9261 -59.7363)" fill="#29A445"/>
<rect x="81.5007" y="-76.9434" width="16" height="401.702" transform="rotate(-35 81.5007 -76.9434)" fill="#29A445"/>
<rect x="106.075" y="-94.1509" width="16" height="401.702" transform="rotate(-35 106.075 -94.1509)" fill="#29A445"/>
<rect x="130.65" y="-111.358" width="16" height="401.702" transform="rotate(-35 130.65 -111.358)" fill="#29A445"/>
<rect x="155.224" y="-128.565" width="16" height="401.702" transform="rotate(-35 155.224 -128.565)" fill="#29A445"/>
<rect x="179.799" y="-145.773" width="16" height="401.702" transform="rotate(-35 179.799 -145.773)" fill="#29A445"/>
</g>
<defs>
<clipPath id="clip0_35_70">
<rect width="300" height="83" fill="white"/>
</clipPath>
</defs>
</svg>
