<svg width="129" height="129" viewBox="0 0 129 129" fill="none" xmlns="http://www.w3.org/2000/svg">
<path d="M10 39C10 41.7614 7.76142 44 5 44C2.23858 44 0 41.7614 0 39C0 36.2386 2.23858 34 5 34C7.76142 34 10 36.2386 10 39Z" fill="white"/>
<path d="M10 56C10 58.7614 7.76142 61 5 61C2.23858 61 0 58.7614 0 56C0 53.2386 2.23858 51 5 51C7.76142 51 10 53.2386 10 56Z" fill="white"/>
<path d="M10 73C10 75.7614 7.76142 78 5 78C2.23858 78 0 75.7614 0 73C0 70.2386 2.23858 68 5 68C7.76142 68 10 70.2386 10 73Z" fill="white"/>
<path d="M10 90C10 92.7614 7.76142 95 5 95C2.23858 95 0 92.7614 0 90C0 87.2386 2.23858 85 5 85C7.76142 85 10 87.2386 10 90Z" fill="white"/>
<path d="M27 22C27 24.7614 24.7614 27 22 27C19.2386 27 17 24.7614 17 22C17 19.2386 19.2386 17 22 17C24.7614 17 27 19.2386 27 22Z" fill="white"/>
<path d="M27 39C27 41.7614 24.7614 44 22 44C19.2386 44 17 41.7614 17 39C17 36.2386 19.2386 34 22 34C24.7614 34 27 36.2386 27 39Z" fill="white"/>
<path d="M27 56C27 58.7614 24.7614 61 22 61C19.2386 61 17 58.7614 17 56C17 53.2386 19.2386 51 22 51C24.7614 51 27 53.2386 27 56Z" fill="white"/>
<path d="M27 73C27 75.7614 24.7614 78 22 78C19.2386 78 17 75.7614 17 73C17 70.2386 19.2386 68 22 68C24.7614 68 27 70.2386 27 73Z" fill="white"/>
<path d="M27 90C27 92.7614 24.7614 95 22 95C19.2386 95 17 92.7614 17 90C17 87.2386 19.2386 85 22 85C24.7614 85 27 87.2386 27 90Z" fill="white"/>
<path d="M27 107C27 109.761 24.7614 112 22 112C19.2386 112 17 109.761 17 107C17 104.239 19.2386 102 22 102C24.7614 102 27 104.239 27 107Z" fill="white"/>
<path d="M44 5C44 7.76142 41.7614 10 39 10C36.2386 10 34 7.76142 34 5C34 2.23858 36.2386 0 39 0C41.7614 0 44 2.23858 44 5Z" fill="white"/>
<path d="M61 5C61 7.76142 58.7614 10 56 10C53.2386 10 51 7.76142 51 5C51 2.23858 53.2386 0 56 0C58.7614 0 61 2.23858 61 5Z" fill="white"/>
<path d="M78 5C78 7.76142 75.7614 10 73 10C70.2386 10 68 7.76142 68 5C68 2.23858 70.2386 0 73 0C75.7614 0 78 2.23858 78 5Z" fill="white"/>
<path d="M95 5C95 7.76142 92.7614 10 90 10C87.2386 10 85 7.76142 85 5C85 2.23858 87.2386 0 90 0C92.7614 0 95 2.23858 95 5Z" fill="white"/>
<path d="M44 22C44 24.7614 41.7614 27 39 27C36.2386 27 34 24.7614 34 22C34 19.2386 36.2386 17 39 17C41.7614 17 44 19.2386 44 22Z" fill="white"/>
<path d="M61 22C61 24.7614 58.7614 27 56 27C53.2386 27 51 24.7614 51 22C51 19.2386 53.2386 17 56 17C58.7614 17 61 19.2386 61 22Z" fill="white"/>
<path d="M78 22C78 24.7614 75.7614 27 73 27C70.2386 27 68 24.7614 68 22C68 19.2386 70.2386 17 73 17C75.7614 17 78 19.2386 78 22Z" fill="white"/>
<path d="M95 22C95 24.7614 92.7614 27 90 27C87.2386 27 85 24.7614 85 22C85 19.2386 87.2386 17 90 17C92.7614 17 95 19.2386 95 22Z" fill="white"/>
<path d="M44 39C44 41.7614 41.7614 44 39 44C36.2386 44 34 41.7614 34 39C34 36.2386 36.2386 34 39 34C41.7614 34 44 36.2386 44 39Z" fill="white"/>
<path d="M61 39C61 41.7614 58.7614 44 56 44C53.2386 44 51 41.7614 51 39C51 36.2386 53.2386 34 56 34C58.7614 34 61 36.2386 61 39Z" fill="white"/>
<path d="M78 39C78 41.7614 75.7614 44 73 44C70.2386 44 68 41.7614 68 39C68 36.2386 70.2386 34 73 34C75.7614 34 78 36.2386 78 39Z" fill="white"/>
<path d="M95 39C95 41.7614 92.7614 44 90 44C87.2386 44 85 41.7614 85 39C85 36.2386 87.2386 34 90 34C92.7614 34 95 36.2386 95 39Z" fill="white"/>
<path d="M44 56C44 58.7614 41.7614 61 39 61C36.2386 61 34 58.7614 34 56C34 53.2386 36.2386 51 39 51C41.7614 51 44 53.2386 44 56Z" fill="white"/>
<path d="M61 56C61 58.7614 58.7614 61 56 61C53.2386 61 51 58.7614 51 56C51 53.2386 53.2386 51 56 51C58.7614 51 61 53.2386 61 56Z" fill="white"/>
<path d="M78 56C78 58.7614 75.7614 61 73 61C70.2386 61 68 58.7614 68 56C68 53.2386 70.2386 51 73 51C75.7614 51 78 53.2386 78 56Z" fill="white"/>
<path d="M95 56C95 58.7614 92.7614 61 90 61C87.2386 61 85 58.7614 85 56C85 53.2386 87.2386 51 90 51C92.7614 51 95 53.2386 95 56Z" fill="white"/>
<path d="M44 73C44 75.7614 41.7614 78 39 78C36.2386 78 34 75.7614 34 73C34 70.2386 36.2386 68 39 68C41.7614 68 44 70.2386 44 73Z" fill="white"/>
<path d="M61 73C61 75.7614 58.7614 78 56 78C53.2386 78 51 75.7614 51 73C51 70.2386 53.2386 68 56 68C58.7614 68 61 70.2386 61 73Z" fill="white"/>
<path d="M78 73C78 75.7614 75.7614 78 73 78C70.2386 78 68 75.7614 68 73C68 70.2386 70.2386 68 73 68C75.7614 68 78 70.2386 78 73Z" fill="white"/>
<path d="M95 73C95 75.7614 92.7614 78 90 78C87.2386 78 85 75.7614 85 73C85 70.2386 87.2386 68 90 68C92.7614 68 95 70.2386 95 73Z" fill="white"/>
<path d="M44 90C44 92.7614 41.7614 95 39 95C36.2386 95 34 92.7614 34 90C34 87.2386 36.2386 85 39 85C41.7614 85 44 87.2386 44 90Z" fill="white"/>
<path d="M61 90C61 92.7614 58.7614 95 56 95C53.2386 95 51 92.7614 51 90C51 87.2386 53.2386 85 56 85C58.7614 85 61 87.2386 61 90Z" fill="white"/>
<path d="M78 90C78 92.7614 75.7614 95 73 95C70.2386 95 68 92.7614 68 90C68 87.2386 70.2386 85 73 85C75.7614 85 78 87.2386 78 90Z" fill="white"/>
<path d="M95 90C95 92.7614 92.7614 95 90 95C87.2386 95 85 92.7614 85 90C85 87.2386 87.2386 85 90 85C92.7614 85 95 87.2386 95 90Z" fill="white"/>
<path d="M44 107C44 109.761 41.7614 112 39 112C36.2386 112 34 109.761 34 107C34 104.239 36.2386 102 39 102C41.7614 102 44 104.239 44 107Z" fill="white"/>
<path d="M61 107C61 109.761 58.7614 112 56 112C53.2386 112 51 109.761 51 107C51 104.239 53.2386 102 56 102C58.7614 102 61 104.239 61 107Z" fill="white"/>
<path d="M78 107C78 109.761 75.7614 112 73 112C70.2386 112 68 109.761 68 107C68 104.239 70.2386 102 73 102C75.7614 102 78 104.239 78 107Z" fill="white"/>
<path d="M95 107C95 109.761 92.7614 112 90 112C87.2386 112 85 109.761 85 107C85 104.239 87.2386 102 90 102C92.7614 102 95 104.239 95 107Z" fill="white"/>
<path d="M44 124C44 126.761 41.7614 129 39 129C36.2386 129 34 126.761 34 124C34 121.239 36.2386 119 39 119C41.7614 119 44 121.239 44 124Z" fill="white"/>
<path d="M61 124C61 126.761 58.7614 129 56 129C53.2386 129 51 126.761 51 124C51 121.239 53.2386 119 56 119C58.7614 119 61 121.239 61 124Z" fill="white"/>
<path d="M78 124C78 126.761 75.7614 129 73 129C70.2386 129 68 126.761 68 124C68 121.239 70.2386 119 73 119C75.7614 119 78 121.239 78 124Z" fill="white"/>
<path d="M95 124C95 126.761 92.7614 129 90 129C87.2386 129 85 126.761 85 124C85 121.239 87.2386 119 90 119C92.7614 119 95 121.239 95 124Z" fill="white"/>
<path d="M112 22C112 24.7614 109.761 27 107 27C104.239 27 102 24.7614 102 22C102 19.2386 104.239 17 107 17C109.761 17 112 19.2386 112 22Z" fill="white"/>
<path d="M112 39C112 41.7614 109.761 44 107 44C104.239 44 102 41.7614 102 39C102 36.2386 104.239 34 107 34C109.761 34 112 36.2386 112 39Z" fill="white"/>
<path d="M112 56C112 58.7614 109.761 61 107 61C104.239 61 102 58.7614 102 56C102 53.2386 104.239 51 107 51C109.761 51 112 53.2386 112 56Z" fill="white"/>
<path d="M112 73C112 75.7614 109.761 78 107 78C104.239 78 102 75.7614 102 73C102 70.2386 104.239 68 107 68C109.761 68 112 70.2386 112 73Z" fill="white"/>
<path d="M112 90C112 92.7614 109.761 95 107 95C104.239 95 102 92.7614 102 90C102 87.2386 104.239 85 107 85C109.761 85 112 87.2386 112 90Z" fill="white"/>
<path d="M112 107C112 109.761 109.761 112 107 112C104.239 112 102 109.761 102 107C102 104.239 104.239 102 107 102C109.761 102 112 104.239 112 107Z" fill="white"/>
<path d="M129 39C129 41.7614 126.761 44 124 44C121.239 44 119 41.7614 119 39C119 36.2386 121.239 34 124 34C126.761 34 129 36.2386 129 39Z" fill="white"/>
<path d="M129 56C129 58.7614 126.761 61 124 61C121.239 61 119 58.7614 119 56C119 53.2386 121.239 51 124 51C126.761 51 129 53.2386 129 56Z" fill="white"/>
<path d="M129 73C129 75.7614 126.761 78 124 78C121.239 78 119 75.7614 119 73C119 70.2386 121.239 68 124 68C126.761 68 129 70.2386 129 73Z" fill="white"/>
<path d="M129 90C129 92.7614 126.761 95 124 95C121.239 95 119 92.7614 119 90C119 87.2386 121.239 85 124 85C126.761 85 129 87.2386 129 90Z" fill="white"/>
</svg>
